fd_5_states
version=1
nRows=47
nColumns=17
inDegrees=yes

# SIMM Motion File Header:
name fd_5_states
datacolumns 17
datarows 47
otherdata 1
range 0.732679 0.769711
endheader
time	/jointset/r_shoulder/r_shoulder_elev/value	/jointset/r_shoulder/r_shoulder_elev/speed	/jointset/r_elbow/r_elbow_flex/value	/jointset/r_elbow/r_elbow_flex/speed	/forceset/TRIlong/activation	/forceset/TRIlong/fiber_length	/forceset/TRIlat/activation	/forceset/TRIlat/fiber_length	/forceset/TRImed/activation	/forceset/TRImed/fiber_length	/forceset/BIClong/activation	/forceset/BIClong/fiber_length	/forceset/BICshort/activation	/forceset/BICshort/fiber_length	/forceset/BRA/activation	/forceset/BRA/fiber_length
      0.732679	    -11.176001	   -127.305014	    239.307645	    248.114589	      0.037236	      0.160645	      0.356534	      0.100705	      0.347774	      0.095773	      0.131414	      0.101166	      0.035130	      0.099507	      0.032024	      0.049836
      0.733357	    -11.261874	   -126.108808	    239.475494	    247.212352	      0.037074	      0.160545	      0.354573	      0.100658	      0.345795	      0.095726	      0.130959	      0.101346	      0.034989	      0.099704	      0.031953	      0.049897
      0.734035	    -11.346937	   -124.914805	    239.642733	    246.316746	      0.036914	      0.160447	      0.352652	      0.100612	      0.343855	      0.095679	      0.130509	      0.101525	      0.034849	      0.099855	      0.031882	      0.049960
      0.734712	    -11.431189	   -123.718841	    239.809362	    245.412906	      0.036756	      0.160349	      0.350769	      0.100565	      0.341954	      0.095633	      0.130066	      0.101703	      0.034711	      0.100035	      0.031812	      0.050022
      0.735524	    -11.531070	   -122.287168	    240.008203	    244.332258	      0.036568	      0.160232	      0.348562	      0.100509	      0.339726	      0.095577	      0.129541	      0.101914	      0.034547	      0.100226	      0.031729	      0.050097
      0.736336	    -11.629788	   -120.852696	    240.206165	    243.239649	      0.036383	      0.160116	      0.346408	      0.100454	      0.337550	      0.095521	      0.129025	      0.102125	      0.034385	      0.100462	      0.031646	      0.050170
      0.737148	    -11.727342	   -119.421996	    240.403241	    242.156732	      0.036199	      0.160001	      0.344304	      0.100398	      0.335425	      0.095466	      0.128516	      0.102334	      0.034225	      0.100629	      0.031565	      0.050249
      0.737960	    -11.823734	   -117.987954	    240.599434	    241.062627	      0.036018	      0.159887	      0.342249	      0.100343	      0.333349	      0.095411	      0.128015	      0.102542	      0.034066	      0.100858	      0.031485	      0.050316
      0.738772	    -11.918961	   -116.556101	    240.794739	    239.968933	      0.035839	      0.159773	      0.340243	      0.100288	      0.331321	      0.095355	      0.127522	      0.102748	      0.033910	      0.101028	      0.031405	      0.050408
      0.739584	    -12.013026	   -115.123103	    240.989158	    238.876464	      0.035662	      0.159661	      0.338283	      0.100233	      0.329340	      0.095300	      0.127036	      0.102953	      0.033755	      0.101252	      0.031327	      0.050464
      0.740397	    -12.105927	   -113.690920	    241.182685	    237.776112	      0.035487	      0.159549	      0.336360	      0.100178	      0.327413	      0.095245	      0.126551	      0.103157	      0.033602	      0.101422	      0.031250	      0.050550
      0.741209	    -12.197665	   -112.257612	    241.375318	    236.675129	      0.035314	      0.159438	      0.334403	      0.100123	      0.325620	      0.095190	      0.126011	      0.103360	      0.033451	      0.101642	      0.031190	      0.050609
      0.742021	    -12.288239	   -110.826115	    241.567056	    235.570941	      0.035143	      0.159328	      0.332479	      0.100068	      0.323881	      0.095135	      0.125469	      0.103563	      0.033302	      0.101812	      0.031133	      0.050696
      0.742833	    -12.377652	   -109.394650	    241.757899	    234.470164	      0.034974	      0.159219	      0.330600	      0.100013	      0.322180	      0.095081	      0.124936	      0.103763	      0.033154	      0.102027	      0.031076	      0.050754
      0.743695	    -12.471292	   -107.877278	    241.959500	    233.298650	      0.034797	      0.159104	      0.328651	      0.099956	      0.320417	      0.095023	      0.124379	      0.103975	      0.032999	      0.102208	      0.031017	      0.050849
      0.744557	    -12.563626	   -106.360661	    242.160097	    232.135129	      0.034622	      0.158990	      0.326749	      0.099898	      0.318695	      0.094965	      0.123831	      0.104185	      0.032846	      0.102440	      0.030958	      0.050907
      0.745418	    -12.654653	   -104.846279	    242.359688	    230.966924	      0.034449	      0.158877	      0.324893	      0.099840	      0.317013	      0.094907	      0.123291	      0.104394	      0.032695	      0.102612	      0.030900	      0.051004
      0.746280	    -12.744376	   -103.332962	    242.558278	    229.808787	      0.034278	      0.158766	      0.323081	      0.099783	      0.315370	      0.094849	      0.122760	      0.104601	      0.032546	      0.102838	      0.030843	      0.051059
      0.747142	    -12.832794	   -101.821506	    242.755864	    228.644302	      0.034110	      0.158655	      0.321311	      0.099725	      0.313766	      0.094791	      0.122237	      0.104807	      0.032399	      0.103010	      0.030786	      0.051151
      0.748004	    -12.919910	   -100.310987	    242.952451	    227.487526	      0.033943	      0.158545	      0.319584	      0.099668	      0.312198	      0.094733	      0.121723	      0.105011	      0.032253	      0.103231	      0.030730	      0.051210
      0.749051	    -13.023926	    -98.481290	    243.189778	    226.081168	      0.033744	      0.158412	      0.317541	      0.099599	      0.310344	      0.094664	      0.121109	      0.105257	      0.032078	      0.103449	      0.030663	      0.051360
      0.749793	    -13.096505	    -97.194420	    243.357150	    225.147556	      0.033604	      0.158319	      0.316127	      0.099550	      0.309060	      0.094614	      0.120681	      0.105431	      0.031956	      0.103619	      0.030616	      0.051381
      0.750101	    -13.126361	    -96.657330	    243.426438	    224.741078	      0.033547	      0.158281	      0.315454	      0.099529	      0.308437	      0.094594	      0.120502	      0.105502	      0.031906	      0.103687	      0.030594	      0.051399
      0.750409	    -13.156050	    -96.119649	    243.495599	    224.330077	      0.033489	      0.158243	      0.314148	      0.099509	      0.307161	      0.094573	      0.120308	      0.105574	      0.031856	      0.103756	      0.030550	      0.051422
      0.750717	    -13.185574	    -95.581961	    243.564634	    223.917863	      0.033432	      0.158205	      0.312821	      0.099489	      0.305863	      0.094553	      0.120113	      0.105645	      0.031806	      0.103825	      0.030506	      0.051448
      0.752039	    -13.310433	    -93.277186	    243.859539	    222.153426	      0.033190	      0.158042	      0.307266	      0.099404	      0.300427	      0.094468	      0.119289	      0.105949	      0.031594	      0.104118	      0.030318	      0.051558
      0.752674	    -13.369285	    -92.170953	    244.000270	    221.298479	      0.033076	      0.157965	      0.304679	      0.099364	      0.297893	      0.094427	      0.118901	      0.106094	      0.031494	      0.104259	      0.030229	      0.051622
      0.753308	    -13.427436	    -91.066567	    244.140460	    220.448576	      0.032962	      0.157889	      0.302140	      0.099324	      0.295408	      0.094387	      0.118517	      0.106238	      0.031394	      0.104398	      0.030141	      0.051672
      0.754207	    -13.508591	    -89.502280	    244.338071	    219.233645	      0.032803	      0.157781	      0.298627	      0.099268	      0.291967	      0.094331	      0.117981	      0.106441	      0.031255	      0.104594	      0.030018	      0.051750
      0.755215	    -13.597903	    -87.749759	    244.558314	    217.865053	      0.032627	      0.157662	      0.294798	      0.099206	      0.288216	      0.094269	      0.117390	      0.106667	      0.031101	      0.104812	      0.029881	      0.051833
      0.756027	    -13.668578	    -86.337106	    244.734757	    216.748143	      0.032487	      0.157567	      0.291796	      0.099157	      0.285273	      0.094219	      0.116922	      0.106847	      0.030979	      0.104986	      0.029772	      0.051911
      0.756839	    -13.738107	    -84.926500	    244.910293	    215.633693	      0.032349	      0.157472	      0.288863	      0.099108	      0.282399	      0.094169	      0.116461	      0.107026	      0.030858	      0.105159	      0.029665	      0.051972
      0.757651	    -13.806490	    -83.514399	    245.084919	    214.501219	      0.032212	      0.157379	      0.285999	      0.099058	      0.279591	      0.094120	      0.116006	      0.107203	      0.030738	      0.105331	      0.029559	      0.052045
      0.758463	    -13.873727	    -82.103575	    245.258622	    213.366734	      0.032077	      0.157286	      0.283202	      0.099010	      0.276848	      0.094071	      0.115559	      0.107379	      0.030620	      0.105501	      0.029454	      0.052109
      0.759275	    -13.939817	    -80.691859	    245.431400	    212.217786	      0.031944	      0.157194	      0.280469	      0.098961	      0.274167	      0.094022	      0.115117	      0.107554	      0.030503	      0.105671	      0.029350	      0.052181
      0.760087	    -14.004762	    -79.281260	    245.603242	    211.065886	      0.031812	      0.157103	      0.277830	      0.098912	      0.271575	      0.093973	      0.114677	      0.107727	      0.030387	      0.105839	      0.029247	      0.052245
      0.760769	    -14.058415	    -78.096458	    245.746822	    210.089552	      0.031702	      0.157028	      0.276237	      0.098872	      0.269960	      0.093932	      0.114209	      0.107873	      0.030291	      0.105979	      0.029162	      0.052303
      0.761765	    -14.135349	    -76.368358	    245.955389	    208.663793	      0.031543	      0.156918	      0.274087	      0.098812	      0.267766	      0.093872	      0.113514	      0.108085	      0.030152	      0.106183	      0.029039	      0.052384
      0.762692	    -14.205433	    -74.762082	    246.148302	    207.333738	      0.031398	      0.156818	      0.272136	      0.098756	      0.265774	      0.093816	      0.112878	      0.108280	      0.030024	      0.106370	      0.028926	      0.052466
      0.763516	    -14.266400	    -73.340777	    246.318519	    206.164278	      0.031270	      0.156729	      0.270443	      0.098706	      0.264046	      0.093766	      0.112322	      0.108452	      0.029913	      0.106536	      0.028826	      0.052527
      0.764339	    -14.326197	    -71.921371	    246.487773	    204.991816	      0.031144	      0.156642	      0.268786	      0.098657	      0.262354	      0.093716	      0.111775	      0.108623	      0.029802	      0.106699	      0.028728	      0.052598
      0.765338	    -14.397232	    -70.203834	    246.691980	    203.582560	      0.030993	      0.156537	      0.266821	      0.098596	      0.260347	      0.093656	      0.111121	      0.108828	      0.029670	      0.106897	      0.028611	      0.052674
      0.766165	    -14.454674	    -68.786316	    246.859771	    202.416961	      0.030870	      0.156451	      0.265234	      0.098547	      0.258726	      0.093606	      0.110590	      0.108997	      0.029561	      0.107059	      0.028514	      0.052748
      0.766992	    -14.510946	    -67.374103	    247.026604	    201.267038	      0.030748	      0.156366	      0.263680	      0.098497	      0.257139	      0.093556	      0.110066	      0.109164	      0.029455	      0.107219	      0.028420	      0.052809
      0.767818	    -14.566051	    -65.964536	    247.192488	    200.118026	      0.030627	      0.156282	      0.262158	      0.098447	      0.255585	      0.093506	      0.109550	      0.109329	      0.029349	      0.107378	      0.028326	      0.052877
      0.768869	    -14.634463	    -64.178486	    247.402118	    198.674394	      0.030476	      0.156176	      0.260269	      0.098384	      0.253654	      0.093443	      0.108905	      0.109538	      0.029216	      0.107579	      0.028208	      0.052957
      0.769711	    -14.687871	    -62.752485	    247.568824	    197.522690	      0.030356	      0.156092	      0.258792	      0.098334	      0.252145	      0.093393	      0.108397	      0.109703	      0.029111	      0.107738	      0.028115	      0.053030
